# xmcd
#
# Track frame offsets:
# 150
# 15862
# 35464
# 50982
# 69623
# 88432
# 105546
# 122265
# 147363
# 167873
# 186787
# 207894
# 223480
#
# Disc length: 2999 seconds
#
#
# Revision: 0
# Processed by: cddbd v1.5.2PL0 Copyright (c) Steve Scherf et al.
# Submitted via: FreeRIP 2.945 
#
DISCID=c20bb50d
DTITLE=Robert Coates - Down On The Ground
DYEAR=2008
DGENRE=Country
TTITLE0=There's Nothin Wrong
TTITLE1=It's Taking Too Long
TTITLE2=I Can't Be The Only One
TTITLE3=Reality Breaks Through
TTITLE4=The Ballad of Johnny Vaughn
TTITLE5=Wingtown
TTITLE6=Why I Keep Holdin On
TTITLE7=I Helped You Up
TTITLE8=It's All Grey
TTITLE9=So Many Days
TTITLE10=Drowning Lambs
TTITLE11=Drowning Lambs
TTITLE12=Bounus Track
EXTD=
EXTT0=
EXTT1=
EXTT2=
EXTT3=
EXTT4=
EXTT5=
EXTT6=
EXTT7=
EXTT8=
EXTT9=
EXTT10=
EXTT11=
EXTT12=
PLAYORDER=
